<svg width="40" height="40" viewBox="0 0 40 40" fill="none" xmlns="http://www.w3.org/2000/svg">
<path d="M1.09795 1.09795C1.80118 0.394932 2.75483 0 3.7492 0C4.74356 0 5.69722 0.394932 6.40045 1.09795L19.6604 14.3579L32.9204 1.09795C33.6277 0.414856 34.575 0.0368773 35.5582 0.0454214C36.5414 0.0539655 37.482 0.448349 38.1773 1.14363C38.8725 1.83891 39.2669 2.77946 39.2755 3.76269C39.284 4.74593 38.906 5.69319 38.2229 6.40045L24.9629 19.6604L38.2229 32.9204C38.906 33.6277 39.284 34.575 39.2755 35.5582C39.2669 36.5414 38.8725 37.482 38.1773 38.1773C37.482 38.8725 36.5414 39.2669 35.5582 39.2755C34.575 39.284 33.6277 38.906 32.9204 38.2229L19.6604 24.9629L6.40045 38.2229C5.69319 38.906 4.74593 39.284 3.76269 39.2755C2.77946 39.2669 1.83891 38.8725 1.14363 38.1773C0.448349 37.482 0.0539655 36.5414 0.0454214 35.5582C0.0368773 34.575 0.414856 33.6277 1.09795 32.9204L14.3579 19.6604L1.09795 6.40045C0.394932 5.69722 0 4.74356 0 3.7492C0 2.75483 0.394932 1.80118 1.09795 1.09795V1.09795Z" fill="#40DABF"/>
</svg>
