<svg width="60" height="60" viewBox="0 0 60 60" fill="none" xmlns="http://www.w3.org/2000/svg">
<path d="M0 0H60V60H0V0Z" fill="#F7DF1E"/>
<path d="M15.7762 50.1403L20.3676 47.3616C21.2536 48.9321 22.0594 50.261 23.9923 50.261C25.845 50.261 27.0133 49.5363 27.0133 46.7173V27.5459H32.6517V46.797C32.6517 52.6369 29.2284 55.2952 24.2339 55.2952C19.7233 55.2952 17.1051 52.9591 15.776 50.1398L15.7762 50.1403ZM35.7143 49.5361L40.3052 46.878C41.5139 48.8517 43.0847 50.3016 45.8634 50.3016C48.1999 50.3016 49.6896 49.1334 49.6896 47.5223C49.6896 45.5892 48.1591 44.9044 45.5815 43.777L44.1722 43.1723C40.1041 41.441 37.4058 39.266 37.4058 34.6746C37.4058 30.4455 40.6277 27.2234 45.6623 27.2234C49.2469 27.2234 51.8245 28.4721 53.677 31.7344L49.2867 34.5539C48.3199 32.8221 47.2732 32.1375 45.6621 32.1375C44.0107 32.1375 42.9635 33.1847 42.9635 34.5539C42.9635 36.2454 44.0107 36.9305 46.4271 37.9777L47.8366 38.5816C52.6296 40.6359 55.328 42.7301 55.328 47.442C55.328 52.5171 51.3408 55.2959 45.9841 55.2959C40.7484 55.2959 37.3652 52.7988 35.7141 49.5363" fill="black"/>
</svg>
