<svg width="60" height="60" viewBox="0 0 60 60" fill="none" xmlns="http://www.w3.org/2000/svg">
<path d="M30 60C46.5685 60 60 46.5685 60 30C60 13.4315 46.5685 0 30 0C13.4315 0 0 13.4315 0 30C0 46.5685 13.4315 60 30 60Z" fill="#13AA52"/>
<path d="M38.0191 26.3344C36.1242 17.9713 31.6459 15.2215 31.1637 14.1709C30.6363 13.4297 30.102 12.1113 30.102 12.1113C30.0932 12.0891 30.0791 12.0498 30.0627 12.0117C30.0082 12.7529 29.9801 13.0389 29.2793 13.7865C28.1942 14.635 22.6266 19.3066 22.1737 28.8082C21.7512 37.6699 28.575 42.9504 29.4979 43.6236L29.6027 43.698V43.6916C29.6086 43.7361 29.8957 45.801 30.0973 47.9889H30.8203C30.99 46.4423 31.2443 44.9062 31.582 43.3875L31.6406 43.3494C32.0534 43.0534 32.447 42.7315 32.819 42.3855L32.8611 42.3475C34.8229 40.5352 38.3496 36.3434 38.315 29.6602C38.3077 28.5453 38.2088 27.433 38.0191 26.3344ZM30.0205 38.6203C30.0205 38.6203 30.0205 26.1914 30.4307 26.1938C30.7506 26.1938 31.1649 42.2256 31.1649 42.2256C30.5953 42.157 30.0205 39.5871 30.0205 38.6203Z" fill="white"/>
</svg>
