<svg width="61" height="60" viewBox="0 0 61 60" fill="none" xmlns="http://www.w3.org/2000/svg">
<path d="M17.1848 1.50551C18.4152 -1.5178 22.7173 0.77175 24.3869 1.82783C24.796 2.09206 25.2654 2.65028 25.7345 2.85661C26.4664 2.88535 27.1977 2.94263 27.9308 2.97322C29.3059 3.29637 30.594 3.56039 31.6776 4.17753C36.7133 7.14314 39.9914 10.1652 43.0083 15.157C43.653 16.2143 43.9751 17.3584 44.5017 18.5026C45.2326 20.2081 46.0538 21.9983 46.9021 23.611C47.2819 24.3755 47.5757 25.2257 48.1031 25.8714C48.309 26.1666 48.894 26.2536 49.2436 26.43C50.2102 26.9303 51.3812 27.3101 52.2903 27.8973C53.9879 28.9558 55.6294 30.2172 57.1215 31.5086C57.6777 32.0071 58.0567 32.7127 58.5865 33.2399V33.506C58.1162 33.6503 57.6475 33.7981 57.1784 33.9166C56.1537 34.1798 55.246 34.1202 54.252 34.3837C53.6377 34.5619 52.875 34.7969 52.2308 34.8567L52.2903 34.9166C52.6693 35.9996 54.7199 36.8804 55.6577 37.5281C56.7967 38.3501 57.8522 39.3471 58.7017 40.4921C58.9951 40.7842 59.2885 41.0501 59.5804 41.3414C59.7845 41.6366 59.842 42.0185 60.0485 42.2817V42.3708C59.8198 42.2901 59.6554 42.1361 59.4995 41.9752L59.4065 41.8781C59.3135 41.7816 59.2197 41.6867 59.1127 41.6085C58.4664 41.1671 57.8247 40.6391 57.1784 40.2286C56.0673 39.5236 54.7786 39.1145 53.6377 38.4068C52.9926 37.996 52.3778 37.5281 51.7629 37.0579C51.2055 36.6459 50.5916 35.8547 50.2414 35.2675C50.035 34.9431 50.0067 34.5619 49.771 34.3272C49.8131 33.9353 50.1722 33.8189 50.5345 33.7232L50.6179 33.7012C50.7429 33.6688 50.8653 33.6363 50.972 33.5934C52.4942 32.9471 54.3088 32.7127 56.6522 32.7714C56.5639 32.183 55.0997 31.4499 54.6322 31.0976C53.694 30.4213 52.7005 29.7157 51.7052 29.1002C51.1777 28.7778 50.2689 28.5426 49.6846 28.2792C48.894 27.956 47.1368 27.6331 46.6986 27.0176C45.9544 26.0473 45.4198 24.89 44.9008 23.721L44.7595 23.402C44.7124 23.2956 44.6652 23.1894 44.6179 23.0831C44.0044 21.6754 43.2424 20.2076 42.6275 18.7662C42.306 18.063 42.1584 17.4459 41.8063 16.7715C39.6697 12.633 36.5074 9.16805 32.6733 6.7313C31.4134 5.93842 30.0085 5.20467 28.4576 4.70598C27.5787 4.44053 26.5239 4.58732 25.5875 4.38366H24.9712C24.4452 4.23543 24.006 3.67782 23.5956 3.38383C22.6892 2.76833 21.7814 2.35505 20.6973 1.91591C20.3175 1.73976 19.2329 1.32956 18.8543 1.6525C18.6199 1.71143 18.501 1.79991 18.4433 2.03519C18.2101 2.38626 18.4152 2.91512 18.5603 3.23888C19.0001 4.17712 19.6144 4.73473 20.172 5.52761C20.668 6.23077 21.2841 7.02366 21.6358 7.78821C22.3946 9.43166 22.7479 11.2525 23.4511 12.8958C23.7118 13.5137 24.1243 14.2169 24.5039 14.7743C24.8256 15.2167 25.4105 15.5366 25.5875 16.0966C25.9402 16.6838 25.0594 18.6213 24.8556 19.2366C24.0929 21.6441 24.2407 24.9908 25.119 27.0777L25.1658 27.1878L25.2126 27.2992C25.5333 28.0636 25.8765 28.8866 26.7292 29.1004C26.7879 29.0421 26.7292 29.0727 26.8456 29.0421C27.0519 27.4267 27.11 25.8711 27.6668 24.6073C27.9885 23.8171 28.6309 23.2585 29.0713 22.6134C29.3649 22.7891 29.3649 23.319 29.5398 23.6697C29.9208 24.5792 30.33 25.5763 30.7997 26.4885C31.7638 28.367 32.8487 30.1883 34.0778 31.8315C34.4894 32.4185 35.0735 33.0646 35.6003 33.5932C35.835 33.7979 36.0978 33.9162 36.2741 34.1796H36.3316V34.2683C35.4533 33.9445 34.8966 33.0358 34.1961 32.5053C32.8772 31.5082 31.2978 30.0107 30.3887 28.5738C30.0085 27.7489 29.5975 26.9582 29.1877 26.1374V26.0781C29.0126 26.3126 29.0713 26.5454 28.9836 26.9001C28.6034 28.367 28.8961 30.0405 27.5787 30.5681C26.0853 31.186 24.9714 29.5709 24.5039 28.837C23.0101 26.4008 22.6009 22.2911 23.6543 18.9736C23.8884 18.2392 23.9202 17.3584 24.3288 16.7721C24.2405 16.242 23.8319 16.0971 23.5956 15.7723C23.1858 15.2171 22.835 14.5704 22.5141 13.9539C21.8978 12.7496 21.4592 11.3106 20.9913 10.019C20.7856 9.49161 20.7267 8.96213 20.5216 8.46284C20.1718 7.70075 19.5269 6.9362 19.0295 6.26198C18.3559 5.29295 16.394 3.41483 17.1848 1.50551V1.50551ZM26.7873 7.25709C26.8655 7.33551 26.9599 7.40408 27.0577 7.47163L27.1755 7.55252C27.3326 7.66133 27.4847 7.77589 27.5779 7.93192C27.7257 8.13846 27.7532 8.34232 27.9302 8.54927C27.9302 9.2549 27.7257 9.72402 27.3128 10.0164C27.3128 10.0164 27.2847 10.0472 27.2558 10.0759C27.0217 9.60556 26.8166 9.13767 26.5809 8.66773C26.2906 8.25753 25.8802 7.93213 25.6437 7.46342H25.5869V7.4045C25.9402 7.31724 26.2906 7.25709 26.7873 7.25709Z" fill="#00758F"/>
<path d="M17.8495 46.0034L19.673 51.92C20.0827 53.2634 20.2535 54.2012 20.1851 54.7357C21.1824 52.0647 21.8792 49.1538 22.2757 46.0034H24.4683C23.5255 51.1324 22.282 54.8596 20.7385 57.1846C19.5358 58.9764 18.2184 59.8722 16.7837 59.8722C16.4012 59.8722 15.9296 59.7566 15.37 59.5272V58.2908C15.6434 58.3309 15.9642 58.3523 16.3331 58.3523C17.0024 58.3523 17.5418 58.1668 17.9522 57.7966C18.4436 57.3455 18.6896 56.8386 18.6896 56.2766C18.6896 55.893 18.4978 55.1055 18.1158 53.9144L15.5751 46.0034H17.8493H17.8495ZM3.89346 42.3668L7.23342 52.5573H7.25404L10.6145 42.3668H13.3601C13.9613 47.4206 14.3164 52.0446 14.4253 56.236H12.1106C12.0291 52.3179 11.8035 48.6336 11.4346 45.1825H11.4145L7.88957 56.236H6.12678L2.62322 45.1825H2.60259C2.34266 48.4969 2.17906 52.1811 2.11086 56.236H0C0.136411 51.3045 0.47779 46.6819 1.02414 42.3668H3.89357H3.89346Z" fill="#00758F"/>
<path d="M41.3098 42.161C44.9025 42.161 46.699 44.4563 46.699 49.0447C46.699 51.5381 46.1587 53.4215 45.0793 54.6939C44.8847 54.9264 44.6697 55.1272 44.4433 55.3133L46.9857 56.5704L46.9833 56.5703L46.0805 58.1292L42.7695 56.1973C42.2207 56.3598 41.6168 56.4411 40.9588 56.4411C39.1947 56.4411 37.877 55.9269 37.0058 54.9C36.0495 53.7639 35.5716 51.9755 35.5716 49.5377C35.5716 47.0583 36.1109 45.1821 37.1907 43.9081C38.1742 42.7428 39.5475 42.1609 41.3098 42.1609V42.161ZM30.3078 42.1812C31.5919 42.1812 32.7595 42.5248 33.8112 43.2095L33.277 44.3999C32.3771 44.0173 31.4898 43.8253 30.6149 43.8253C29.9049 43.8253 29.3579 43.9961 28.9765 44.34C28.5931 44.6808 28.3559 45.1193 28.3559 45.6539C28.3559 46.4754 28.9411 47.1878 30.0218 47.7897C30.3758 47.9833 30.7286 48.179 31.0801 48.377L31.1608 48.4223L31.2012 48.4451L31.2819 48.4904L31.3222 48.5132L31.4029 48.5586C32.2209 49.0198 32.9906 49.46 32.9906 49.46C34.0711 50.227 34.6097 51.0447 34.6097 52.3916C34.6097 53.5679 34.1787 54.5334 33.3194 55.289C32.4596 56.0411 31.3044 56.4182 29.8578 56.4182C28.5048 56.4182 27.1936 55.9841 25.9235 55.1232L26.5176 53.9319C27.6107 54.4797 28.5998 54.7534 29.488 54.7534C30.321 54.7534 30.973 54.5674 31.4447 54.2001C31.9155 53.8301 32.1976 53.3142 32.1976 52.6599C32.1976 51.8364 31.6247 51.1324 30.5739 50.5419C30.2449 50.3601 29.917 50.1767 29.59 49.9914L29.5095 49.9458C29.3616 49.8623 29.2127 49.7777 29.0668 49.6948L28.9877 49.6498C28.2781 49.2462 27.6646 48.8936 27.6646 48.8936C26.6141 48.1251 26.0873 47.3007 26.0873 45.9422C26.0873 44.8187 26.4801 43.9106 27.2646 43.2197C28.051 42.5274 29.0655 42.1812 30.3078 42.1812V42.1812ZM50.9213 42.3668V54.5299H55.2852V56.236H48.708V42.3668H50.9213ZM57.7102 54.5352V54.8235H57.2304V56.2345H56.8636V54.8235H56.3652V54.5352H57.7103H57.7102ZM58.5961 54.5352L59.0568 55.6935L59.48 54.5352H60V56.2345H59.6543V54.9412L59.1726 56.2345H58.9233L58.4409 54.9412H58.4223V56.2345H58.0953V54.5352H58.5963H58.5961ZM41.0838 43.8666C38.9667 43.8666 37.9075 45.614 37.9075 49.1063C37.9075 51.1067 38.1882 52.5573 38.7484 53.4615C39.2674 54.2982 40.0801 54.7158 41.1867 54.7158C43.3039 54.7158 44.363 52.9548 44.363 49.4346C44.363 47.4622 44.0823 46.024 43.5227 45.1194C43.0032 44.2845 42.1908 43.8666 41.084 43.8666H41.0838Z" fill="#F29111"/>
</svg>
