<svg width="60" height="60" viewBox="0 0 60 60" fill="none" xmlns="http://www.w3.org/2000/svg">
<path d="M28.0352 0.0161328C27.9063 0.0278516 27.4957 0.0688673 27.1261 0.0981642C18.6042 0.866447 10.6216 5.46395 5.56594 12.5304C2.75062 16.4594 0.950156 20.9163 0.269766 25.6371C0.0292969 27.2848 0 27.7716 0 30.0059C0 32.2402 0.0292969 32.727 0.269766 34.3746C1.90031 45.6399 9.91781 55.1049 20.7916 58.6116C22.7391 59.2393 24.7917 59.6672 27.1261 59.9253C28.0352 60.0249 31.9648 60.0249 32.8739 59.9253C36.9033 59.4795 40.3167 58.4827 43.6833 56.7645C44.1994 56.5006 44.2992 56.4303 44.2287 56.3715C44.1818 56.3363 41.9824 53.3867 39.3431 49.8211L34.5455 43.3411L28.5338 34.4452C25.2258 29.5542 22.5045 25.5548 22.481 25.5548C22.4576 25.549 22.4341 29.5017 22.4224 34.3277C22.4046 42.7782 22.399 43.1182 22.2933 43.3177C22.1409 43.605 22.0235 43.7225 21.7772 43.8514C21.5895 43.9451 21.4252 43.9627 20.5397 43.9627H19.5248L19.2553 43.7928C19.0882 43.688 18.9524 43.5401 18.8623 43.3646L18.739 43.1007L18.7507 31.343L18.7683 19.5792L18.9502 19.3505C19.0439 19.2274 19.2434 19.0692 19.3842 18.9928C19.6247 18.8756 19.7184 18.8639 20.733 18.8639C21.9295 18.8639 22.129 18.9108 22.4398 19.2509C22.5279 19.3446 25.7829 24.2473 29.6773 30.1526C33.5719 36.0577 38.8976 44.1211 41.5132 48.0795L46.264 55.2748L46.5045 55.1166C48.6335 53.7326 50.8856 51.7622 52.6685 49.7096C56.4633 45.3525 58.909 40.0397 59.7302 34.3749C59.9707 32.727 60 32.2402 60 30.0061C60 27.7716 59.9707 27.285 59.7302 25.6371C58.0997 14.3719 50.0822 4.90684 39.2084 1.40012C37.2902 0.778556 35.2493 0.350352 32.9618 0.0923048C32.3988 0.033711 28.522 -0.0307422 28.0352 0.0161328V0.0161328ZM40.3167 18.1601C40.5982 18.3007 40.827 18.5707 40.909 18.8522C40.9559 19.0045 40.9676 22.2652 40.9559 29.6131L40.9385 40.1569L39.0792 37.3069L37.2141 34.4569V26.7923C37.2141 21.8369 37.2375 19.0514 37.2727 18.9166C37.3664 18.5883 37.572 18.3302 37.8534 18.1776C38.0939 18.0546 38.1818 18.0429 39.1027 18.0429C39.9708 18.0429 40.1231 18.0546 40.3167 18.1601Z" fill="white"/>
</svg>
