<svg width="11" height="10" viewBox="0 0 11 10" fill="none" xmlns="http://www.w3.org/2000/svg">
<path opacity="0.6" d="M9.04419 3.24122C8.92713 3.20018 8.80907 3.16216 8.69013 3.1272C8.71011 3.04378 8.7285 2.96137 8.74483 2.88041C9.01287 1.55094 8.83764 0.479888 8.23913 0.127247C7.66528 -0.210818 6.7268 0.141691 5.779 0.984527C5.68559 1.06774 5.59425 1.15335 5.50507 1.24128C5.44537 1.18281 5.38462 1.12548 5.32284 1.06931C4.32949 0.168122 3.33382 -0.211696 2.73595 0.141955C2.16262 0.481074 1.99285 1.48794 2.23416 2.74791C2.25817 2.8727 2.28528 2.99684 2.31546 3.12022C2.17452 3.16114 2.03852 3.20469 1.90837 3.25106C0.743746 3.66595 0 4.31614 0 4.99055C0 5.6871 0.798445 6.38575 2.01145 6.80939C2.10979 6.84359 2.20895 6.87529 2.30884 6.90444C2.2764 7.03733 2.2476 7.17111 2.22247 7.30564C1.99242 8.54375 2.17207 9.52682 2.74386 9.86378C3.33442 10.2118 4.32562 9.85413 5.29074 8.99206C5.369 8.92197 5.44554 8.8499 5.52028 8.77592C5.61686 8.87113 5.71601 8.96357 5.81763 9.05313C6.75254 9.87511 7.67585 10.207 8.24708 9.86914C8.83708 9.52014 9.02885 8.46406 8.77989 7.1792C8.76028 7.07854 8.73829 6.97837 8.71393 6.8788C8.78354 6.85773 8.85186 6.83604 8.91846 6.81347C10.1795 6.38659 11 5.69641 11 4.99055C11 4.31368 10.2322 3.6591 9.04419 3.24122ZM8.77069 6.35774C8.71054 6.37807 8.64884 6.3977 8.58593 6.41679C8.44671 5.96646 8.25885 5.48764 8.02893 4.99288C8.24832 4.50993 8.42896 4.03721 8.56427 3.58982C8.67681 3.6231 8.78599 3.65818 8.89127 3.69519C9.90919 4.05328 10.5301 4.58264 10.5301 4.99055C10.5301 5.42503 9.85952 5.98908 8.77069 6.35774ZM8.31892 7.27245C8.42901 7.84057 8.44469 8.35426 8.37177 8.75585C8.30629 9.1167 8.17455 9.35726 8.01161 9.45363C7.66498 9.65866 6.92364 9.39216 6.12412 8.68916C6.0296 8.60589 5.93737 8.51995 5.84753 8.43144C6.15751 8.08508 6.46727 7.68243 6.7696 7.23522C7.30138 7.18701 7.80377 7.10816 8.25937 7.00055C8.28131 7.09069 8.30117 7.18135 8.31892 7.27245ZM3.75014 9.4182C3.41146 9.54038 3.1417 9.54389 2.97864 9.44783C2.63166 9.24337 2.48742 8.45401 2.68417 7.39521C2.70756 7.27009 2.73434 7.14566 2.76448 7.02206C3.21505 7.12392 3.71379 7.19715 4.24682 7.24132C4.55121 7.67892 4.86991 8.08113 5.1911 8.43333C5.12284 8.50082 5.05297 8.56658 4.98154 8.63055C4.55473 9.01173 4.12706 9.28218 3.75014 9.4182ZM2.16348 6.35506C1.6271 6.16772 1.18413 5.92427 0.880516 5.65861C0.607664 5.4199 0.469949 5.18286 0.469949 4.99055C0.469949 4.58128 1.06709 4.05925 2.06306 3.70446C2.18393 3.66143 2.31043 3.62082 2.4417 3.58271C2.57937 4.0402 2.75993 4.51854 2.97782 5.00223C2.75709 5.49309 2.57396 5.97906 2.43495 6.44195C2.34378 6.41527 2.25326 6.38629 2.16348 6.35506ZM2.69534 2.65567C2.48862 1.57618 2.62591 0.761887 2.97142 0.557511C3.3394 0.339833 4.15314 0.650194 5.01084 1.42836C5.06677 1.47922 5.1218 1.53111 5.17589 1.584C4.85629 1.93467 4.54051 2.33389 4.23882 2.7689C3.72148 2.81789 3.22627 2.89657 2.77097 3.00199C2.74292 2.88723 2.7177 2.77177 2.69534 2.65571V2.65567ZM7.44025 3.85285C7.33271 3.66305 7.22118 3.47564 7.10574 3.29075C7.45671 3.3361 7.79298 3.39629 8.10876 3.46988C8.01397 3.78037 7.89581 4.10496 7.75672 4.43775C7.65505 4.24065 7.54954 4.04565 7.44025 3.85285ZM5.50529 1.92716C5.72202 2.1671 5.9391 2.43496 6.15261 2.72561C5.71948 2.7047 5.28564 2.70462 4.8525 2.72534C5.06623 2.43737 5.28516 2.16986 5.50529 1.92716ZM3.5579 3.85615C3.44998 4.04739 3.34644 4.24118 3.24736 4.43736C3.11055 4.10575 2.99346 3.77967 2.89786 3.46478C3.2117 3.39304 3.54638 3.33439 3.89512 3.28987C3.77839 3.47589 3.66595 3.66469 3.5579 3.8561V3.85615ZM3.90513 6.7254C3.54484 6.6843 3.20513 6.62868 2.89137 6.55887C2.98848 6.23837 3.10814 5.90535 3.24792 5.56663C3.34739 5.76295 3.45136 5.95686 3.55975 6.14819C3.67121 6.34488 3.78662 6.53753 3.90513 6.7254ZM5.51826 8.08776C5.29551 7.84224 5.07336 7.57061 4.85641 7.27846C5.06705 7.28689 5.28176 7.2912 5.5 7.2912C5.72421 7.2912 5.94584 7.28606 6.164 7.27614C5.9498 7.57355 5.73354 7.84558 5.51826 8.08776ZM7.76114 5.54933C7.90818 5.89178 8.03211 6.22304 8.1305 6.53806C7.81159 6.61243 7.46724 6.67232 7.10441 6.71679C7.22067 6.52847 7.33326 6.3378 7.4421 6.14489C7.55276 5.94881 7.65913 5.75024 7.76114 5.54933ZM7.03506 5.905C6.86843 6.20076 6.69244 6.4909 6.50736 6.77497C6.1721 6.79923 5.8361 6.81128 5.5 6.8111C5.15767 6.8111 4.8247 6.80021 4.50407 6.77896C4.31416 6.49555 4.13481 6.2049 3.9664 5.90763H3.96645C3.79883 5.61194 3.64227 5.30985 3.4971 5.00201C3.6419 4.69411 3.79799 4.39187 3.96503 4.09595L3.96498 4.096C4.13196 3.8 4.30988 3.5106 4.49836 3.2284C4.82548 3.20311 5.16093 3.18994 5.49996 3.18994H5.5C5.84057 3.18994 6.17646 3.20324 6.50349 3.22871C6.69007 3.51048 6.86685 3.79889 7.03351 4.09341C7.20111 4.38867 7.35926 4.68943 7.50772 4.99521C7.36078 5.30411 7.20313 5.60756 7.03506 5.905ZM8.00443 0.543199C8.37276 0.760263 8.51602 1.63559 8.28459 2.78347C8.26981 2.8567 8.25322 2.9313 8.23518 3.00695C7.77876 2.89929 7.2832 2.81925 6.76436 2.76951C6.46211 2.32972 6.14891 1.92988 5.83451 1.58374C5.91691 1.50258 6.00127 1.42353 6.08751 1.34665C6.89962 0.624554 7.65862 0.339437 8.00443 0.543199ZM5.5 3.9869C6.04248 3.9869 6.48227 4.43626 6.48227 4.99055C6.48227 5.54485 6.04248 5.99421 5.5 5.99421C4.95752 5.99421 4.51773 5.54485 4.51773 4.99055C4.51773 4.43626 4.95752 3.9869 5.5 3.9869Z" fill="#00D8FF"/>
</svg>
