<svg width="60" height="60" viewBox="0 0 60 60" fill="none" xmlns="http://www.w3.org/2000/svg">
<path d="M41.5737 41.9035C43.7878 41.6621 45.4676 39.6515 45.3912 37.2385C45.315 34.8257 43.406 32.8954 41.1155 32.8954H40.9629C38.5957 32.9759 36.7634 35.0669 36.8398 37.5602C36.9162 38.7667 37.3741 39.8122 38.0613 40.5361C35.4654 45.9249 31.4951 49.8659 25.5396 53.1634C21.4929 55.4155 17.2936 56.2198 13.0943 55.6569C9.65836 55.1743 6.98601 53.5658 5.30601 50.9114C2.86289 46.9705 2.6339 42.7076 4.69547 38.445C6.14625 35.3886 8.43656 33.1366 9.88734 32.0106C9.58195 30.965 9.12375 29.1957 8.89476 27.9089C-2.17641 36.3539 -1.03102 47.7748 2.32851 53.1634C4.84804 57.1851 9.96375 59.6783 15.6138 59.6783C17.1408 59.6783 18.6677 59.5174 20.1949 59.1154C29.9681 57.1046 37.3744 50.9919 41.5737 41.9035V41.9035ZM55.0118 31.9303C49.2089 24.7721 40.6575 20.8312 30.8843 20.8312H29.6627C28.9755 19.3835 27.5248 18.4182 25.9214 18.4182H25.7686C23.4019 18.4986 21.5695 20.5897 21.6457 23.0832C21.7221 25.4959 23.6309 27.4263 25.9214 27.4263H26.074C27.7537 27.3458 29.2045 26.2198 29.8153 24.6916H31.1897C36.9926 24.6916 42.4898 26.461 47.453 29.9195C51.2705 32.5737 54.0192 36.0322 55.5462 40.2144C56.8441 43.5924 56.7677 46.89 55.3933 49.7051C53.2556 53.9678 49.6671 56.3003 44.9332 56.3003C41.8791 56.3003 38.9777 55.335 37.4505 54.6111C36.6108 55.4155 35.0836 56.7022 34.0146 57.5068C37.298 59.1152 40.6575 60 43.8642 60C51.1941 60 56.6151 55.7371 58.6767 51.4745C60.8908 46.8095 60.738 38.7667 55.0118 31.9303V31.9303ZM16.2246 43.2705C16.301 45.6835 18.2098 47.6136 20.5003 47.6136H20.6531C23.0201 47.5333 24.8524 45.442 24.776 42.9488C24.6998 40.5358 22.7909 38.6057 20.5003 38.6057H20.3477C20.1949 38.6057 19.9657 38.6057 19.8134 38.6859C16.6828 33.2168 15.3848 27.2653 15.843 20.8309C16.1482 16.0052 17.6754 11.8228 20.3477 8.36426C22.5619 5.38838 26.8376 3.94068 29.7391 3.86045C37.8323 3.69948 41.268 14.316 41.4973 18.5789C42.4898 18.8201 44.1696 19.3832 45.315 19.7854C44.3986 6.75609 36.7634 0 29.4337 0C22.5619 0 16.2246 5.22791 13.7048 12.9491C10.1927 23.2439 12.4833 33.1366 16.759 40.9382C16.3774 41.5011 16.1482 42.3859 16.2246 43.2707V43.2705Z" fill="#764ABC"/>
</svg>
