<svg width="24" height="24" viewBox="0 0 24 24" fill="none" xmlns="http://www.w3.org/2000/svg">
<path d="M17.75 2.3198e-06C16.078 2.3198e-06 14.492 0.660002 13.312 1.844L11.844 3.312C11.2591 3.89354 10.795 4.58507 10.4785 5.34674C10.1621 6.10842 9.99942 6.92519 10 7.75C10 8.543 10.152 9.316 10.438 10.031L12.062 8.406C11.9567 7.74148 12.0094 7.06151 12.2158 6.42113C12.4222 5.78076 12.7765 5.19799 13.25 4.72L14.719 3.251C15.1172 2.85349 15.5899 2.53839 16.1099 2.32373C16.63 2.10907 17.1874 1.99906 17.75 2C18.887 2 19.945 2.445 20.75 3.25C21.5475 4.05098 21.9952 5.13523 21.9952 6.2655C21.9952 7.39577 21.5475 8.48002 20.75 9.281L19.281 10.75C18.8827 11.1473 18.41 11.4623 17.8899 11.6767C17.3699 11.8912 16.8126 12.0011 16.25 12C16.027 12 15.809 11.977 15.594 11.937L13.969 13.563C14.6947 13.8521 15.4688 14.0004 16.25 14C17.922 14 19.508 13.34 20.688 12.156L22.156 10.688C22.7409 10.1065 23.205 9.41494 23.5215 8.65326C23.8379 7.89158 24.0006 7.07481 24 6.25C24 4.578 23.34 3.027 22.156 1.844C21.5809 1.25938 20.8951 0.795209 20.1386 0.4786C19.3821 0.161992 18.5701 -0.000708609 17.75 2.3198e-06V2.3198e-06ZM15.281 7.281L7.281 15.281L8.719 16.719L16.719 8.719L15.281 7.281ZM7.75 10C6.078 10 4.492 10.66 3.312 11.844L1.844 13.313C1.2592 13.8944 0.795206 14.5858 0.478731 15.3473C0.162256 16.1088 -0.000443996 16.9254 9.09986e-07 17.75C9.09986e-07 19.422 0.660001 20.973 1.844 22.156C2.4191 22.7406 3.10493 23.2048 3.86143 23.5214C4.61792 23.838 5.42992 24.0007 6.25 24C7.922 24 9.508 23.34 10.688 22.156L12.156 20.688C12.7409 20.1065 13.205 19.4149 13.5215 18.6533C13.8379 17.8916 14.0006 17.0748 14 16.25C14 15.457 13.848 14.684 13.562 13.969L11.937 15.594C12.0426 16.2586 11.9901 16.9387 11.7839 17.5793C11.5777 18.2198 11.2235 18.8028 10.75 19.281L9.281 20.75C8.88273 21.1473 8.41003 21.4623 7.88994 21.6767C7.36985 21.8912 6.81258 22.0011 6.25 22C5.69205 22.0009 5.13948 21.8909 4.62445 21.6763C4.10942 21.4617 3.64221 21.1468 3.25 20.75C2.45255 19.949 2.00484 18.8648 2.00484 17.7345C2.00484 16.6042 2.45255 15.52 3.25 14.719L4.719 13.25C5.11727 12.8527 5.58997 12.5378 6.11006 12.3233C6.63015 12.1088 7.18742 11.9989 7.75 12C7.973 12 8.191 12.023 8.406 12.063L10.031 10.438C9.30535 10.1486 8.53124 9.99994 7.75 10V10Z" fill="#D3D3D3"/>
</svg>
