<svg width="60" height="60" viewBox="0 0 60 60" fill="none" xmlns="http://www.w3.org/2000/svg">
<path d="M0 30V60H60V0H0V30Z" fill="#007ACC"/>
<path d="M13.2684 30.1992L13.2495 32.6562H21.0588V54.8468H26.5826V32.6562H34.3922V30.2468C34.3922 28.9132 34.3636 27.799 34.3256 27.7704C34.297 27.7324 29.5444 27.7132 23.7827 27.7228L13.2968 27.7514L13.2684 30.199V30.1992ZM48.4141 27.6816C49.9378 28.0624 51.0998 28.7386 52.1665 29.8434C52.7189 30.4341 53.5378 31.5101 53.6046 31.7672C53.6234 31.8434 51.0141 33.5958 49.4332 34.5769C49.376 34.6148 49.1473 34.3673 48.8902 33.9863C48.1188 32.8624 47.3093 32.3768 46.0711 32.291C44.2523 32.1673 43.0807 33.1195 43.0903 34.71C43.0903 35.1769 43.1569 35.453 43.3474 35.8338C43.7475 36.6626 44.4902 37.1578 46.8237 38.1673C51.1188 40.0148 52.9568 41.2338 54.0998 42.9673C55.376 44.9006 55.6617 47.9864 54.795 50.2816C53.8427 52.7768 51.4809 54.472 48.1568 55.0338C47.1284 55.2148 44.6904 55.1862 43.5855 54.9863C41.1762 54.5578 38.8903 53.3672 37.4808 51.8053C36.9284 51.1959 35.8521 49.6052 35.9189 49.4911C35.9475 49.4529 36.195 49.3005 36.4711 49.1386C36.7378 48.9863 37.7475 48.4052 38.6998 47.853L40.4236 46.853L40.7855 47.3864C41.2903 48.1575 42.3949 49.2148 43.0617 49.5673C44.9759 50.5767 47.6046 50.434 48.8998 49.272C49.4522 48.7673 49.6807 48.2435 49.6807 47.472C49.6807 46.7768 49.5949 46.4721 49.233 45.9483C48.7666 45.2815 47.8141 44.7197 45.1092 43.5483C42.0141 42.2147 40.6807 41.3864 39.4617 40.072C38.7569 39.3103 38.0902 38.0911 37.8141 37.072C37.5855 36.2243 37.5281 34.1006 37.7093 33.2435C38.3475 30.2529 40.6045 28.1672 43.8616 27.5482C44.9187 27.3483 47.3759 27.4245 48.4141 27.6816V27.6816Z" fill="white"/>
</svg>
